<?xml version="1.0" encoding="UTF-8"?>
<svg version="1.1" xmlns="http://www.w3.org/2000/svg" width="75" height="75">
<path d="M0 0 C4.39132389 2.25220259 6.98416572 4.85657084 9.0078125 9.30859375 C11.11146195 18.64057251 6.87367715 25.89387754 2.12451172 33.58740234 C-0.32862674 37.36847495 -3.04101825 40.9055267 -5.9921875 44.30859375 C-9.91966169 40.63831698 -12.8294769 36.85339294 -15.6796875 32.30859375 C-16.06962891 31.7053125 -16.45957031 31.10203125 -16.86132812 30.48046875 C-21.36770666 23.39351447 -23.15944298 17.70801982 -21.9921875 9.30859375 C-20.27195548 5.21842836 -17.83302236 2.90100013 -14.2421875 0.37109375 C-9.40003767 -1.21191677 -4.88941103 -1.69691324 0 0 Z M-7.9921875 14.30859375 C-7.9921875 14.96859375 -7.9921875 15.62859375 -7.9921875 16.30859375 C-7.0021875 15.97859375 -6.0121875 15.64859375 -4.9921875 15.30859375 C-5.9821875 14.97859375 -6.9721875 14.64859375 -7.9921875 14.30859375 Z " fill="#FFFFFF" transform="translate(43.9921875,15.69140625)"/>
</svg>
