<?xml version="1.0" encoding="UTF-8"?>
<svg xmlns="http://www.w3.org/2000/svg" xmlns:xlink="http://www.w3.org/1999/xlink" width="38px" height="38px" viewBox="0 0 38 38" version="1.1">
<g id="surface1">
<path style=" stroke:none;fill-rule:nonzero;fill:rgb(0%,0%,0%);fill-opacity:1;" d="M 16.972656 0.140625 C 10.296875 0.835938 4.332031 5.230469 1.621094 11.449219 C -0.125 15.464844 -0.417969 20.089844 0.824219 24.34375 C 2.355469 29.652344 6.320312 34.136719 11.449219 36.378906 C 15.464844 38.125 20.089844 38.417969 24.347656 37.175781 C 30.714844 35.339844 35.734375 30.109375 37.378906 23.609375 C 39.949219 13.425781 33.644531 3.015625 23.433594 0.582031 C 21.191406 0.0507812 19.214844 -0.0898438 16.972656 0.140625 Z M 17.226562 11.90625 C 18.847656 14.058594 20.214844 15.832031 20.265625 15.832031 C 20.316406 15.832031 22.003906 14.058594 23.992188 11.90625 L 27.625 7.980469 L 29.691406 7.980469 L 29.246094 8.449219 C 28.992188 8.714844 27.347656 10.5 25.585938 12.414062 C 23.824219 14.324219 22.101562 16.1875 21.761719 16.53125 L 21.152344 17.175781 L 25.902344 23.496094 C 28.511719 26.980469 30.652344 29.867188 30.652344 29.917969 C 30.652344 29.984375 29.097656 30.019531 27.207031 30.019531 L 23.75 30.007812 L 20.53125 25.699219 C 18.316406 22.722656 17.277344 21.445312 17.175781 21.519531 C 17.101562 21.585938 15.300781 23.523438 13.171875 25.828125 L 9.308594 30.019531 L 8.335938 30.019531 C 7.789062 30.019531 7.347656 29.996094 7.347656 29.957031 C 7.347656 29.917969 9.359375 27.714844 11.816406 25.066406 C 14.261719 22.421875 16.289062 20.203125 16.3125 20.164062 C 16.328125 20.113281 14.3125 17.367188 11.84375 14.058594 C 9.375 10.765625 7.347656 8.042969 7.347656 8.015625 C 7.347656 7.992188 8.902344 7.980469 10.816406 7.980469 L 14.289062 7.980469 Z M 17.226562 11.90625 "/>
<path style=" stroke:none;fill-rule:nonzero;fill:rgb(0%,0%,0%);fill-opacity:1;" d="M 10.476562 9.675781 C 10.527344 9.765625 13.71875 14.046875 17.542969 19.164062 L 24.511719 28.488281 L 26.066406 28.5 C 27.03125 28.5 27.613281 28.449219 27.585938 28.375 C 27.574219 28.308594 24.394531 24.027344 20.546875 18.875 L 13.527344 9.5 L 11.957031 9.5 C 10.652344 9.5 10.386719 9.527344 10.476562 9.675781 Z M 10.476562 9.675781 "/>
</g>
</svg>
